# xmcd
#
# Track frame offsets:
#	150
#	12797
#	26746
#	42963
#	58395
#	76705
#	94767
#	110284
#	129763
#	143240
#	157562
#	172787
#	186449
#
# Disc length: 2807 seconds
#
# Revision: 1
# Processed by: cddbd v1.5.2PL0 Copyright (c) Steve Scherf et al.
# Submitted via: audiograbber 1.83.01
#
DISCID=950af50d
DTITLE=Toby Keith - Pull My Chain
DYEAR=2001
DGENRE=Country
TTITLE0=I'm Just Talkin' About Tonight
TTITLE1=I Wanna Talk About Me
TTITLE2=I Can't Take You Anywhere
TTITLE3=You Leave Me Weak
TTITLE4=Tryin' To Matter
TTITLE5=Pull My Chain
TTITLE6=The Sha La La Song
TTITLE7=Pick'em Up and Lay'em Down
TTITLE8=Forever Hasn't Got Here Yet
TTITLE9=Yesterday's Rain
TTITLE10=My List
TTITLE11=You Didn't Have As Much To Lose
TTITLE12=Bonus Track: Gimme 8 Seconds
EXTD=
EXTT0=
EXTT1=
EXTT2=
EXTT3=
EXTT4=
EXTT5=
EXTT6=
EXTT7=
EXTT8=
EXTT9=
EXTT10=
EXTT11=
EXTT12=
PLAYORDER=
